<mxfile host="app.diagrams.net" modified="2025-01-27T00:00:00.000Z" agent="5.0" etag="drawio" version="22.1.16" type="device">
  <diagram name="Frontend Component Hierarchy" id="frontend-components">
    <mxGraphModel dx="1422" dy="794" grid="1" gridSize="10" guides="1" tooltips="1" connect="1" arrows="1" fold="1" page="1" pageScale="1" pageWidth="1169" pageHeight="827" math="0" shadow="0">
      <root>
        <mxCell id="0" />
        <mxCell id="1" parent="0" />
        
        <!-- Application Root -->
        <mxCell id="app-root" value="Application Root" style="swimlane;whiteSpace=wrap;html=1;fillColor=#e1f5fe;strokeColor=#01579b;" vertex="1" parent="1">
          <mxGeometry x="50" y="50" width="300" height="120" as="geometry" />
        </mxCell>
        <mxCell id="app" value="App.tsx" style="rounded=1;whiteSpace=wrap;html=1;fillColor=#bbdefb;" vertex="1" parent="app-root">
          <mxGeometry x="20" y="30" width="80" height="30" as="geometry" />
        </mxCell>
        <mxCell id="error-boundary" value="ErrorBoundary" style="rounded=1;whiteSpace=wrap;html=1;fillColor=#bbdefb;" vertex="1" parent="app-root">
          <mxGeometry x="110" y="30" width="80" height="30" as="geometry" />
        </mxCell>
        <mxCell id="router" value="React Router" style="rounded=1;whiteSpace=wrap;html=1;fillColor=#bbdefb;" vertex="1" parent="app-root">
          <mxGeometry x="200" y="30" width="80" height="30" as="geometry" />
        </mxCell>
        
        <!-- Layout Components -->
        <mxCell id="layout-components" value="Layout Components" style="swimlane;whiteSpace=wrap;html=1;fillColor=#f3e5f5;strokeColor=#7b1fa2;" vertex="1" parent="1">
          <mxGeometry x="400" y="50" width="320" height="120" as="geometry" />
        </mxCell>
        <mxCell id="layout" value="Layout" style="rounded=1;whiteSpace=wrap;html=1;fillColor=#ce93d8;" vertex="1" parent="layout-components">
          <mxGeometry x="20" y="30" width="60" height="30" as="geometry" />
        </mxCell>
        <mxCell id="header" value="Header" style="rounded=1;whiteSpace=wrap;html=1;fillColor=#ce93d8;" vertex="1" parent="layout-components">
          <mxGeometry x="90" y="30" width="60" height="30" as="geometry" />
        </mxCell>
        <mxCell id="sidebar" value="Sidebar" style="rounded=1;whiteSpace=wrap;html=1;fillColor=#ce93d8;" vertex="1" parent="layout-components">
          <mxGeometry x="160" y="30" width="60" height="30" as="geometry" />
        </mxCell>
        <mxCell id="footer" value="Footer" style="rounded=1;whiteSpace=wrap;html=1;fillColor=#ce93d8;" vertex="1" parent="layout-components">
          <mxGeometry x="230" y="30" width="60" height="30" as="geometry" />
        </mxCell>
        
        <!-- Page Components -->
        <mxCell id="page-components" value="Page Components" style="swimlane;whiteSpace=wrap;html=1;fillColor=#e8f5e8;strokeColor=#2e7d32;" vertex="1" parent="1">
          <mxGeometry x="50" y="220" width="400" height="120" as="geometry" />
        </mxCell>
        <mxCell id="dashboard" value="Dashboard" style="rounded=1;whiteSpace=wrap;html=1;fillColor=#a5d6a7;" vertex="1" parent="page-components">
          <mxGeometry x="20" y="30" width="70" height="30" as="geometry" />
        </mxCell>
        <mxCell id="customer-list" value="CustomerList" style="rounded=1;whiteSpace=wrap;html=1;fillColor=#a5d6a7;" vertex="1" parent="page-components">
          <mxGeometry x="100" y="30" width="80" height="30" as="geometry" />
        </mxCell>
        <mxCell id="customer-detail" value="CustomerDetail" style="rounded=1;whiteSpace=wrap;html=1;fillColor=#a5d6a7;" vertex="1" parent="page-components">
          <mxGeometry x="190" y="30" width="80" height="30" as="geometry" />
        </mxCell>
        <mxCell id="customer-form" value="CustomerForm" style="rounded=1;whiteSpace=wrap;html=1;fillColor=#a5d6a7;" vertex="1" parent="page-components">
          <mxGeometry x="280" y="30" width="80" height="30" as="geometry" />
        </mxCell>
        <mxCell id="not-found" value="NotFound" style="rounded=1;whiteSpace=wrap;html=1;fillColor=#a5d6a7;" vertex="1" parent="page-components">
          <mxGeometry x="280" y="70" width="80" height="30" as="geometry" />
        </mxCell>
        
        <!-- UI Components -->
        <mxCell id="ui-components" value="UI Components" style="swimlane;whiteSpace=wrap;html=1;fillColor=#fff3e0;strokeColor=#e65100;" vertex="1" parent="1">
          <mxGeometry x="500" y="220" width="380" height="120" as="geometry" />
        </mxCell>
        <mxCell id="customer-card" value="CustomerCard" style="rounded=1;whiteSpace=wrap;html=1;fillColor=#ffcc02;" vertex="1" parent="ui-components">
          <mxGeometry x="20" y="30" width="80" height="30" as="geometry" />
        </mxCell>
        <mxCell id="loading-spinner" value="LoadingSpinner" style="rounded=1;whiteSpace=wrap;html=1;fillColor=#ffcc02;" vertex="1" parent="ui-components">
          <mxGeometry x="110" y="30" width="80" height="30" as="geometry" />
        </mxCell>
        <mxCell id="button" value="Button" style="rounded=1;whiteSpace=wrap;html=1;fillColor=#ffcc02;" vertex="1" parent="ui-components">
          <mxGeometry x="200" y="30" width="60" height="30" as="geometry" />
        </mxCell>
        <mxCell id="input" value="Input" style="rounded=1;whiteSpace=wrap;html=1;fillColor=#ffcc02;" vertex="1" parent="ui-components">
          <mxGeometry x="270" y="30" width="50" height="30" as="geometry" />
        </mxCell>
        <mxCell id="modal" value="Modal" style="rounded=1;whiteSpace=wrap;html=1;fillColor=#ffcc02;" vertex="1" parent="ui-components">
          <mxGeometry x="20" y="70" width="60" height="30" as="geometry" />
        </mxCell>
        <mxCell id="toast" value="Toast" style="rounded=1;whiteSpace=wrap;html=1;fillColor=#ffcc02;" vertex="1" parent="ui-components">
          <mxGeometry x="90" y="70" width="60" height="30" as="geometry" />
        </mxCell>
        
        <!-- Feature Components -->
        <mxCell id="feature-components" value="Feature Components" style="swimlane;whiteSpace=wrap;html=1;fillColor=#ffebee;strokeColor=#c62828;" vertex="1" parent="1">
          <mxGeometry x="50" y="390" width="320" height="120" as="geometry" />
        </mxCell>
        <mxCell id="search-bar" value="SearchBar" style="rounded=1;whiteSpace=wrap;html=1;fillColor=#ffcdd2;" vertex="1" parent="feature-components">
          <mxGeometry x="20" y="30" width="70" height="30" as="geometry" />
        </mxCell>
        <mxCell id="filter-panel" value="FilterPanel" style="rounded=1;whiteSpace=wrap;html=1;fillColor=#ffcdd2;" vertex="1" parent="feature-components">
          <mxGeometry x="100" y="30" width="70" height="30" as="geometry" />
        </mxCell>
        <mxCell id="pagination" value="Pagination" style="rounded=1;whiteSpace=wrap;html=1;fillColor=#ffcdd2;" vertex="1" parent="feature-components">
          <mxGeometry x="180" y="30" width="70" height="30" as="geometry" />
        </mxCell>
        <mxCell id="stats-card" value="StatsCard" style="rounded=1;whiteSpace=wrap;html=1;fillColor=#ffcdd2;" vertex="1" parent="feature-components">
          <mxGeometry x="260" y="30" width="70" height="30" as="geometry" />
        </mxCell>
        
        <!-- Connections -->
        <mxCell id="conn1" style="edgeStyle=orthogonalEdgeStyle;rounded=0;orthogonalLoop=1;jettySize=auto;html=1;" edge="1" parent="1" source="app" target="error-boundary">
          <mxGeometry relative="1" as="geometry" />
        </mxCell>
        <mxCell id="conn2" style="edgeStyle=orthogonalEdgeStyle;rounded=0;orthogonalLoop=1;jettySize=auto;html=1;" edge="1" parent="1" source="error-boundary" target="router">
          <mxGeometry relative="1" as="geometry" />
        </mxCell>
        <mxCell id="conn3" style="edgeStyle=orthogonalEdgeStyle;rounded=0;orthogonalLoop=1;jettySize=auto;html=1;" edge="1" parent="1" source="router" target="layout">
          <mxGeometry relative="1" as="geometry" />
        </mxCell>
        <mxCell id="conn4" style="edgeStyle=orthogonalEdgeStyle;rounded=0;orthogonalLoop=1;jettySize=auto;html=1;" edge="1" parent="1" source="layout" target="header">
          <mxGeometry relative="1" as="geometry" />
        </mxCell>
        <mxCell id="conn5" style="edgeStyle=orthogonalEdgeStyle;rounded=0;orthogonalLoop=1;jettySize=auto;html=1;" edge="1" parent="1" source="layout" target="sidebar">
          <mxGeometry relative="1" as="geometry" />
        </mxCell>
        <mxCell id="conn6" style="edgeStyle=orthogonalEdgeStyle;rounded=0;orthogonalLoop=1;jettySize=auto;html=1;" edge="1" parent="1" source="layout" target="footer">
          <mxGeometry relative="1" as="geometry" />
        </mxCell>
        <mxCell id="conn7" style="edgeStyle=orthogonalEdgeStyle;rounded=0;orthogonalLoop=1;jettySize=auto;html=1;" edge="1" parent="1" source="router" target="dashboard">
          <mxGeometry relative="1" as="geometry" />
        </mxCell>
        <mxCell id="conn8" style="edgeStyle=orthogonalEdgeStyle;rounded=0;orthogonalLoop=1;jettySize=auto;html=1;" edge="1" parent="1" source="router" target="customer-list">
          <mxGeometry relative="1" as="geometry" />
        </mxCell>
        <mxCell id="conn9" style="edgeStyle=orthogonalEdgeStyle;rounded=0;orthogonalLoop=1;jettySize=auto;html=1;" edge="1" parent="1" source="dashboard" target="stats-card">
          <mxGeometry relative="1" as="geometry" />
        </mxCell>
        <mxCell id="conn10" style="edgeStyle=orthogonalEdgeStyle;rounded=0;orthogonalLoop=1;jettySize=auto;html=1;" edge="1" parent="1" source="customer-list" target="search-bar">
          <mxGeometry relative="1" as="geometry" />
        </mxCell>
        <mxCell id="conn11" style="edgeStyle=orthogonalEdgeStyle;rounded=0;orthogonalLoop=1;jettySize=auto;html=1;" edge="1" parent="1" source="customer-list" target="customer-card">
          <mxGeometry relative="1" as="geometry" />
        </mxCell>
        <mxCell id="conn12" style="edgeStyle=orthogonalEdgeStyle;rounded=0;orthogonalLoop=1;jettySize=auto;html=1;" edge="1" parent="1" source="customer-form" target="input">
          <mxGeometry relative="1" as="geometry" />
        </mxCell>
        <mxCell id="conn13" style="edgeStyle=orthogonalEdgeStyle;rounded=0;orthogonalLoop=1;jettySize=auto;html=1;" edge="1" parent="1" source="customer-form" target="button">
          <mxGeometry relative="1" as="geometry" />
        </mxCell>
        
      </root>
    </mxGraphModel>
  </diagram>
  
  <diagram name="Custom Hooks Architecture" id="hooks-arch">
    <mxGraphModel dx="1422" dy="794" grid="1" gridSize="10" guides="1" tooltips="1" connect="1" arrows="1" fold="1" page="1" pageScale="1" pageWidth="1169" pageHeight="827" math="0" shadow="0">
      <root>
        <mxCell id="0" />
        <mxCell id="1" parent="0" />
        
        <!-- Data Hooks -->
        <mxCell id="data-hooks" value="Data Hooks" style="swimlane;whiteSpace=wrap;html=1;fillColor=#e1f5fe;strokeColor=#01579b;" vertex="1" parent="1">
          <mxGeometry x="50" y="50" width="200" height="150" as="geometry" />
        </mxCell>
        <mxCell id="use-customers" value="useCustomers" style="rounded=1;whiteSpace=wrap;html=1;fillColor=#bbdefb;" vertex="1" parent="data-hooks">
          <mxGeometry x="20" y="30" width="80" height="30" as="geometry" />
        </mxCell>
        <mxCell id="use-customer" value="useCustomer" style="rounded=1;whiteSpace=wrap;html=1;fillColor=#bbdefb;" vertex="1" parent="data-hooks">
          <mxGeometry x="110" y="30" width="80" height="30" as="geometry" />
        </mxCell>
        <mxCell id="use-customer-stats" value="useCustomerStats" style="rounded=1;whiteSpace=wrap;html=1;fillColor=#bbdefb;" vertex="1" parent="data-hooks">
          <mxGeometry x="60" y="70" width="100" height="30" as="geometry" />
        </mxCell>
        
        <!-- UI Hooks -->
        <mxCell id="ui-hooks" value="UI Hooks" style="swimlane;whiteSpace=wrap;html=1;fillColor=#f3e5f5;strokeColor=#7b1fa2;" vertex="1" parent="1">
          <mxGeometry x="300" y="50" width="220" height="150" as="geometry" />
        </mxCell>
        <mxCell id="use-modal" value="useModal" style="rounded=1;whiteSpace=wrap;html=1;fillColor=#ce93d8;" vertex="1" parent="ui-hooks">
          <mxGeometry x="20" y="30" width="70" height="30" as="geometry" />
        </mxCell>
        <mxCell id="use-toast" value="useToast" style="rounded=1;whiteSpace=wrap;html=1;fillColor=#ce93d8;" vertex="1" parent="ui-hooks">
          <mxGeometry x="100" y="30" width="70" height="30" as="geometry" />
        </mxCell>
        <mxCell id="use-loading" value="useLoading" style="rounded=1;whiteSpace=wrap;html=1;fillColor=#ce93d8;" vertex="1" parent="ui-hooks">
          <mxGeometry x="20" y="70" width="70" height="30" as="geometry" />
        </mxCell>
        <mxCell id="use-pagination" value="usePagination" style="rounded=1;whiteSpace=wrap;html=1;fillColor=#ce93d8;" vertex="1" parent="ui-hooks">
          <mxGeometry x="100" y="70" width="80" height="30" as="geometry" />
        </mxCell>
        
        <!-- Form Hooks -->
        <mxCell id="form-hooks" value="Form Hooks" style="swimlane;whiteSpace=wrap;html=1;fillColor=#e8f5e8;strokeColor=#2e7d32;" vertex="1" parent="1">
          <mxGeometry x="570" y="50" width="200" height="150" as="geometry" />
        </mxCell>
        <mxCell id="use-form" value="useForm" style="rounded=1;whiteSpace=wrap;html=1;fillColor=#a5d6a7;" vertex="1" parent="form-hooks">
          <mxGeometry x="20" y="30" width="70" height="30" as="geometry" />
        </mxCell>
        <mxCell id="use-validation" value="useValidation" style="rounded=1;whiteSpace=wrap;html=1;fillColor=#a5d6a7;" vertex="1" parent="form-hooks">
          <mxGeometry x="100" y="30" width="80" height="30" as="geometry" />
        </mxCell>
        <mxCell id="use-form-state" value="useFormState" style="rounded=1;whiteSpace=wrap;html=1;fillColor=#a5d6a7;" vertex="1" parent="form-hooks">
          <mxGeometry x="60" y="70" width="80" height="30" as="geometry" />
        </mxCell>
        
        <!-- Utility Hooks -->
        <mxCell id="utility-hooks" value="Utility Hooks" style="swimlane;whiteSpace=wrap;html=1;fillColor=#fff3e0;strokeColor=#e65100;" vertex="1" parent="1">
          <mxGeometry x="50" y="250" width="280" height="150" as="geometry" />
        </mxCell>
        <mxCell id="use-debounce" value="useDebounce" style="rounded=1;whiteSpace=wrap;html=1;fillColor=#ffcc02;" vertex="1" parent="utility-hooks">
          <mxGeometry x="20" y="30" width="80" height="30" as="geometry" />
        </mxCell>
        <mxCell id="use-local-storage" value="useLocalStorage" style="rounded=1;whiteSpace=wrap;html=1;fillColor=#ffcc02;" vertex="1" parent="utility-hooks">
          <mxGeometry x="110" y="30" width="90" height="30" as="geometry" />
        </mxCell>
        <mxCell id="use-media-query" value="useMediaQuery" style="rounded=1;whiteSpace=wrap;html=1;fillColor=#ffcc02;" vertex="1" parent="utility-hooks">
          <mxGeometry x="20" y="70" width="90" height="30" as="geometry" />
        </mxCell>
        <mxCell id="use-error-handler" value="useErrorHandler" style="rounded=1;whiteSpace=wrap;html=1;fillColor=#ffcc02;" vertex="1" parent="utility-hooks">
          <mxGeometry x="120" y="70" width="90" height="30" as="geometry" />
        </mxCell>
        
        <!-- Core Hooks -->
        <mxCell id="core-hooks" value="Core React Hooks" style="swimlane;whiteSpace=wrap;html=1;fillColor=#ffebee;strokeColor=#c62828;" vertex="1" parent="1">
          <mxGeometry x="380" y="250" width="220" height="150" as="geometry" />
        </mxCell>
        <mxCell id="use-state" value="useState" style="rounded=1;whiteSpace=wrap;html=1;fillColor=#ffcdd2;" vertex="1" parent="core-hooks">
          <mxGeometry x="20" y="30" width="70" height="30" as="geometry" />
        </mxCell>
        <mxCell id="use-effect" value="useEffect" style="rounded=1;whiteSpace=wrap;html=1;fillColor=#ffcdd2;" vertex="1" parent="core-hooks">
          <mxGeometry x="100" y="30" width="70" height="30" as="geometry" />
        </mxCell>
        <mxCell id="use-callback" value="useCallback" style="rounded=1;whiteSpace=wrap;html=1;fillColor=#ffcdd2;" vertex="1" parent="core-hooks">
          <mxGeometry x="20" y="70" width="80" height="30" as="geometry" />
        </mxCell>
        <mxCell id="use-memo" value="useMemo" style="rounded=1;whiteSpace=wrap;html=1;fillColor=#ffcdd2;" vertex="1" parent="core-hooks">
          <mxGeometry x="110" y="70" width="70" height="30" as="geometry" />
        </mxCell>
        
        <!-- Dependencies -->
        <mxCell id="dep1" style="edgeStyle=orthogonalEdgeStyle;rounded=0;orthogonalLoop=1;jettySize=auto;html=1;" edge="1" parent="1" source="use-customers" target="use-state">
          <mxGeometry relative="1" as="geometry" />
        </mxCell>
        <mxCell id="dep2" style="edgeStyle=orthogonalEdgeStyle;rounded=0;orthogonalLoop=1;jettySize=auto;html=1;" edge="1" parent="1" source="use-customers" target="use-effect">
          <mxGeometry relative="1" as="geometry" />
        </mxCell>
        <mxCell id="dep3" style="edgeStyle=orthogonalEdgeStyle;rounded=0;orthogonalLoop=1;jettySize=auto;html=1;" edge="1" parent="1" source="use-customers" target="use-error-handler">
          <mxGeometry relative="1" as="geometry" />
        </mxCell>
        <mxCell id="dep4" style="edgeStyle=orthogonalEdgeStyle;rounded=0;orthogonalLoop=1;jettySize=auto;html=1;" edge="1" parent="1" source="use-form" target="use-validation">
          <mxGeometry relative="1" as="geometry" />
        </mxCell>
        <mxCell id="dep5" style="edgeStyle=orthogonalEdgeStyle;rounded=0;orthogonalLoop=1;jettySize=auto;html=1;" edge="1" parent="1" source="use-form" target="use-callback">
          <mxGeometry relative="1" as="geometry" />
        </mxCell>
        <mxCell id="dep6" style="edgeStyle=orthogonalEdgeStyle;rounded=0;orthogonalLoop=1;jettySize=auto;html=1;" edge="1" parent="1" source="use-debounce" target="use-state">
          <mxGeometry relative="1" as="geometry" />
        </mxCell>
        <mxCell id="dep7" style="edgeStyle=orthogonalEdgeStyle;rounded=0;orthogonalLoop=1;jettySize=auto;html=1;" edge="1" parent="1" source="use-debounce" target="use-effect">
          <mxGeometry relative="1" as="geometry" />
        </mxCell>
        
      </root>
    </mxGraphModel>
  </diagram>
</mxfile>